<svg id="visual" viewBox="0 0 1920 1080" width="1920" height="1080" xmlns="http://www.w3.org/2000/svg" xmlns:xlink="http://www.w3.org/1999/xlink" version="1.1"><rect x="0" y="0" width="1920" height="1080" fill="#0c0c1f"></rect><defs><linearGradient id="grad1_0" x1="43.8%" y1="0%" x2="100%" y2="100%"><stop offset="14.444444444444446%" stop-color="#0c0c1f" stop-opacity="1"></stop><stop offset="85.55555555555554%" stop-color="#0c0c1f" stop-opacity="1"></stop></linearGradient></defs><defs><linearGradient id="grad2_0" x1="0%" y1="0%" x2="56.3%" y2="100%"><stop offset="14.444444444444446%" stop-color="#0c0c1f" stop-opacity="1"></stop><stop offset="85.55555555555554%" stop-color="#0c0c1f" stop-opacity="1"></stop></linearGradient></defs><g transform="translate(1920, 0)"><path d="M0 1026C-118 968.6 -236 911.3 -359 866.6C-481.9 821.9 -609.7 789.9 -714.2 714.2C-818.7 638.4 -899.8 519 -947.9 392.6C-996 266.3 -1011 133.2 -1026 0L0 0Z" fill="#ceb6b2"></path></g><g transform="translate(0, 1080)"><path d="M0 -1026C118 -975.5 236 -925 366.2 -884.2C496.4 -843.3 638.8 -812.2 725.5 -725.5C812.2 -638.8 843.3 -496.4 884.2 -366.2C925 -236 975.5 -118 1026 0L0 0Z" fill="#ceb6b2"></path></g></svg>