<svg id="visual" viewBox="0 0 1920 1080" width="1920" height="1080" xmlns="http://www.w3.org/2000/svg" xmlns:xlink="http://www.w3.org/1999/xlink" version="1.1"><rect x="0" y="0" width="1920" height="1080" fill="#0c0c1f"></rect><defs><linearGradient id="grad1_0" x1="43.8%" y1="0%" x2="100%" y2="100%"><stop offset="14.444444444444446%" stop-color="#0c0c1f" stop-opacity="1"></stop><stop offset="85.55555555555554%" stop-color="#0c0c1f" stop-opacity="1"></stop></linearGradient></defs><defs><linearGradient id="grad2_0" x1="0%" y1="0%" x2="56.3%" y2="100%"><stop offset="14.444444444444446%" stop-color="#0c0c1f" stop-opacity="1"></stop><stop offset="85.55555555555554%" stop-color="#0c0c1f" stop-opacity="1"></stop></linearGradient></defs><g transform="translate(1920, 0)"><path d="M0 1026C-130.3 987.6 -260.6 949.2 -367.8 887.8C-474.9 826.5 -558.9 742.2 -661.1 661.1C-763.4 580.1 -884 502.3 -947.9 392.6C-1011.8 283 -1018.9 141.5 -1026 0L0 0Z" fill="#ceb6b2"></path></g><g transform="translate(0, 1080)"><path d="M0 -1026C134.5 -998.5 269 -971 376.6 -909.1C484.1 -847.2 564.6 -751 664.7 -664.7C764.8 -578.3 884.4 -501.8 947.9 -392.6C1011.4 -283.5 1018.7 -141.7 1026 0L0 0Z" fill="#ceb6b2"></path></g></svg>