<svg id="visual" viewBox="0 0 1920 1080" width="1920" height="1080" xmlns="http://www.w3.org/2000/svg" xmlns:xlink="http://www.w3.org/1999/xlink" version="1.1"><rect x="0" y="0" width="1920" height="1080" fill="#0c0c1f"></rect><defs><linearGradient id="grad1_0" x1="43.8%" y1="0%" x2="100%" y2="100%"><stop offset="14.444444444444446%" stop-color="#0c0c1f" stop-opacity="1"></stop><stop offset="85.55555555555554%" stop-color="#0c0c1f" stop-opacity="1"></stop></linearGradient></defs><defs><linearGradient id="grad2_0" x1="0%" y1="0%" x2="56.3%" y2="100%"><stop offset="14.444444444444446%" stop-color="#0c0c1f" stop-opacity="1"></stop><stop offset="85.55555555555554%" stop-color="#0c0c1f" stop-opacity="1"></stop></linearGradient></defs><g transform="translate(1920, 0)"><path d="M0 1026C-129.7 994.2 -259.4 962.4 -377.3 910.9C-495.3 859.5 -601.6 788.3 -701.4 701.4C-801.3 614.6 -894.9 512.1 -947.9 392.6C-1000.9 273.1 -1013.5 136.6 -1026 0L0 0Z" fill="#ceb6b2"></path></g><g transform="translate(0, 1080)"><path d="M0 -1026C137.1 -1013.9 274.3 -1001.8 392.6 -947.9C511 -894 610.7 -798.5 699.3 -699.3C788 -600.2 865.7 -497.5 918.3 -380.4C971 -263.2 998.5 -131.6 1026 0L0 0Z" fill="#ceb6b2"></path></g></svg>