<svg id="visual" viewBox="0 0 1366 768" width="1366" height="768" xmlns="http://www.w3.org/2000/svg" xmlns:xlink="http://www.w3.org/1999/xlink" version="1.1"><rect x="0" y="0" width="1366" height="768" fill="#0c0c1f"></rect><defs><linearGradient id="grad1_0" x1="43.8%" y1="0%" x2="100%" y2="100%"><stop offset="14.427083333333334%" stop-color="#0c0c1f" stop-opacity="1"></stop><stop offset="85.57291666666667%" stop-color="#0c0c1f" stop-opacity="1"></stop></linearGradient></defs><defs><linearGradient id="grad2_0" x1="0%" y1="0%" x2="56.2%" y2="100%"><stop offset="14.427083333333334%" stop-color="#0c0c1f" stop-opacity="1"></stop><stop offset="85.57291666666667%" stop-color="#0c0c1f" stop-opacity="1"></stop></linearGradient></defs><g transform="translate(1366, 0)"><path d="M0 729.6C-92.5 704.9 -185 680.2 -265.2 640.2C-345.4 600.3 -413.3 544.9 -485.1 485.1C-556.9 425.2 -632.7 360.8 -674.1 279.2C-715.5 197.6 -722.5 98.8 -729.6 0L0 0Z" fill="#ceb6b2"></path></g><g transform="translate(0, 768)"><path d="M0 -729.6C95.5 -719 190.9 -708.4 279.2 -674.1C367.5 -639.7 448.6 -581.5 510.5 -510.5C572.5 -439.6 615.2 -355.9 648.6 -268.6C681.9 -181.4 705.7 -90.7 729.6 0L0 0Z" fill="#ceb6b2"></path></g></svg>